<?xml version="1.0" encoding="UTF-8" standalone="no"?>
<!DOCTYPE svg PUBLIC "-//W3C//DTD SVG 1.1//EN" "http://www.w3.org/Graphics/SVG/1.1/DTD/svg11.dtd">
<svg version="1.1" xmlns="http://www.w3.org/2000/svg" xmlns:xlink="http://www.w3.org/1999/xlink" preserveAspectRatio="xMidYMid meet" viewBox="-0.5033112582781403 -0.5033112582781403 27.0066225165563 27.0066225165563" width="23.01" height="23.01"><defs><path d="M23.5 12C23.5 18.35 18.35 23.5 12 23.5C5.65 23.5 0.5 18.35 0.5 12C0.5 5.65 5.65 0.5 12 0.5C18.35 0.5 23.5 5.65 23.5 12Z" id="bv0fJgeyp"></path><path d="M16.99 6.54L18.07 7.42L18.12 7.48L18.15 7.55L18.16 7.62L18.15 7.69L18.11 7.76L10.28 17.42L10.23 17.47L10.16 17.5L10.09 17.51L10.02 17.5L9.96 17.46L9.93 17.49L5.84 14.17L7.02 12.72L9.84 15L16.65 6.58L16.71 6.53L16.77 6.5L16.85 6.49L16.92 6.5L16.99 6.54Z" id="b1TIJrNw1Y"></path></defs><g><g><g><use xlink:href="#bv0fJgeyp" opacity="1" fill-opacity="0" stroke="#ffffff" stroke-width="1" stroke-opacity="1"></use></g></g><g><use xlink:href="#b1TIJrNw1Y" opacity="1" fill="#ffffff" fill-opacity="1"></use></g></g></svg>