<?xml version="1.0" encoding="UTF-8" standalone="no"?>
<!DOCTYPE svg PUBLIC "-//W3C//DTD SVG 1.1//EN" "http://www.w3.org/Graphics/SVG/1.1/DTD/svg11.dtd">
<svg version="1.1" xmlns="http://www.w3.org/2000/svg" xmlns:xlink="http://www.w3.org/1999/xlink" preserveAspectRatio="xMidYMid meet" viewBox="-0.5033112582781403 -0.5033112582781492 27.0066225165563 27.006622516556295" width="23.01" height="23.01"><defs><path d="M23.5 12C23.5 18.35 18.35 23.5 12 23.5C5.65 23.5 0.5 18.35 0.5 12C0.5 5.65 5.65 0.5 12 0.5C18.35 0.5 23.5 5.65 23.5 12Z" id="aPlBJAZW"></path><path d="M8.69 5.54C8.82 5.54 8.93 5.65 8.93 5.78C8.93 8.32 8.93 15.68 8.93 18.22C8.93 18.35 8.82 18.46 8.69 18.46C8.36 18.46 7.62 18.46 7.29 18.46C7.16 18.46 7.05 18.35 7.05 18.22C7.05 15.68 7.05 8.32 7.05 5.78C7.05 5.65 7.16 5.54 7.29 5.54C7.62 5.54 8.36 5.54 8.69 5.54Z" id="b1xicoZGw"></path><path d="M18.42 8.93L18.42 10.4L14.01 10.4L14.01 8.93L18.42 8.93Z" id="e2eHAxRFZb"></path><path d="M12.88 5.54C13.01 5.54 13.12 5.65 13.12 5.78C13.12 8.32 13.12 15.68 13.12 18.22C13.12 18.35 13.01 18.46 12.88 18.46C12.55 18.46 11.81 18.46 11.48 18.46C11.35 18.46 11.24 18.35 11.24 18.22C11.24 15.68 11.24 8.32 11.24 5.78C11.24 5.65 11.35 5.54 11.48 5.54C11.81 5.54 12.55 5.54 12.88 5.54Z" id="cAucJvpHM"></path><path d="M14.38 15.03L14.38 16.5L9.98 16.5L9.98 15.03L14.38 15.03Z" id="gDrktqjsp"></path><path d="M16.92 5.54C17.05 5.54 17.15 5.65 17.15 5.78C17.15 8.32 17.15 15.68 17.15 18.22C17.15 18.35 17.05 18.46 16.92 18.46C16.59 18.46 15.84 18.46 15.52 18.46C15.38 18.46 15.28 18.35 15.28 18.22C15.28 15.68 15.28 8.32 15.28 5.78C15.28 5.65 15.38 5.54 15.52 5.54C15.84 5.54 16.59 5.54 16.92 5.54Z" id="evsEpHXA3"></path><path d="M10.19 7.46L10.19 8.93L5.79 8.93L5.79 7.46L10.19 7.46Z" id="bQDBQUN"></path></defs><g><g><g><use xlink:href="#aPlBJAZW" opacity="1" fill-opacity="0" stroke="#ffffff" stroke-width="1" stroke-opacity="1"></use></g></g><g><use xlink:href="#b1xicoZGw" opacity="1" fill="#ffffff" fill-opacity="1"></use></g><g><use xlink:href="#e2eHAxRFZb" opacity="1" fill="#ffffff" fill-opacity="1"></use></g><g><use xlink:href="#cAucJvpHM" opacity="1" fill="#ffffff" fill-opacity="1"></use></g><g><use xlink:href="#gDrktqjsp" opacity="1" fill="#ffffff" fill-opacity="1"></use></g><g><use xlink:href="#evsEpHXA3" opacity="1" fill="#ffffff" fill-opacity="1"></use></g><g><use xlink:href="#bQDBQUN" opacity="1" fill="#ffffff" fill-opacity="1"></use></g></g></svg>