<?xml version="1.0" encoding="UTF-8" standalone="no"?>
<!DOCTYPE svg PUBLIC "-//W3C//DTD SVG 1.1//EN" "http://www.w3.org/Graphics/SVG/1.1/DTD/svg11.dtd">
<svg version="1.1" xmlns="http://www.w3.org/2000/svg" xmlns:xlink="http://www.w3.org/1999/xlink" preserveAspectRatio="xMidYMid meet" viewBox="-0.5033112582781483 -0.5033112582781403 27.006622516556295 27.0066225165563" width="23.01" height="23.01"><defs><path d="M23.5 12C23.5 18.35 18.35 23.5 12 23.5C5.65 23.5 0.5 18.35 0.5 12C0.5 5.65 5.65 0.5 12 0.5C18.35 0.5 23.5 5.65 23.5 12Z" id="btCPwStmX"></path><path d="M12.87 5.54C13 5.54 13.11 5.65 13.11 5.78C13.11 8.32 13.11 15.68 13.11 18.22C13.11 18.35 13 18.46 12.87 18.46C12.54 18.46 11.8 18.46 11.47 18.46C11.34 18.46 11.23 18.35 11.23 18.22C11.23 15.68 11.23 8.32 11.23 5.78C11.23 5.65 11.34 5.54 11.47 5.54C11.8 5.54 12.54 5.54 12.87 5.54Z" id="b9oiXciT4"></path><path d="M5.71 11.15C5.71 11.02 5.82 10.91 5.95 10.91C8.48 10.91 15.85 10.91 18.39 10.91C18.52 10.91 18.62 11.02 18.62 11.15C18.62 11.48 18.62 12.22 18.62 12.55C18.62 12.68 18.52 12.79 18.39 12.79C15.85 12.79 8.48 12.79 5.95 12.79C5.82 12.79 5.71 12.68 5.71 12.55C5.71 12.22 5.71 11.48 5.71 11.15Z" id="acAk9SjKe"></path></defs><g><g><g><use xlink:href="#btCPwStmX" opacity="1" fill-opacity="0" stroke="#ffffff" stroke-width="1" stroke-opacity="1"></use></g></g><g><use xlink:href="#b9oiXciT4" opacity="1" fill="#ffffff" fill-opacity="1"></use></g><g><use xlink:href="#acAk9SjKe" opacity="1" fill="#ffffff" fill-opacity="1"></use></g></g></svg>